<svg xmlns="http://www.w3.org/2000/svg" fill="none" viewBox="0 0 83 89">
  <g clip-path="url(#W9Btpynq4Eta)">
    <path d="M77.177 71.95c-.626 4.624-3.756 8.627-8.137 10.406-2.146.888-4.471 1.156-6.796.888-2.235-.266-4.471-.978-6.796-2.31-3.22-1.781-6.439-4.537-10.194-8.629 5.902-7.203 9.478-13.785 10.82-19.654.626-2.757.715-5.248.447-7.56-.357-2.223-1.162-4.27-2.415-6.048-2.772-4.002-7.42-6.315-12.607-6.315-5.187 0-9.837 2.402-12.609 6.315-1.252 1.779-2.056 3.825-2.414 6.048-.357 2.313-.268 4.892.447 7.56 1.341 5.869 5.007 12.54 10.82 19.742-3.666 4.093-6.975 6.85-10.194 8.628-2.325 1.335-4.56 2.046-6.796 2.312a14.377 14.377 0 01-6.796-.888c-4.382-1.78-7.51-5.783-8.137-10.407-.268-2.223-.09-4.446.805-6.936.268-.89.716-1.778 1.162-2.846.626-1.423 1.342-2.936 2.057-4.448l.09-.177C16.103 44.38 22.72 30.861 29.606 17.7l.268-.535c.716-1.332 1.43-2.755 2.146-4.09.715-1.423 1.52-2.757 2.503-3.914 1.878-2.135 4.382-3.29 7.154-3.29 2.772 0 5.276 1.155 7.154 3.29.983 1.157 1.788 2.491 2.504 3.915.715 1.334 1.43 2.757 2.145 4.09l.27.534a1176.278 1176.278 0 0119.582 40.02v.088c.716 1.423 1.341 3.025 2.057 4.448.447 1.068.894 1.955 1.162 2.846.715 2.312.983 4.536.626 6.847zm-35.678-4.181c-4.829-6.047-7.959-11.74-9.032-16.54-.446-2.047-.537-3.825-.268-5.427.179-1.423.716-2.669 1.43-3.737 1.7-2.399 4.56-3.913 7.87-3.913 3.308 0 6.259 1.424 7.868 3.913.715 1.068 1.252 2.314 1.43 3.737.269 1.602.18 3.469-.267 5.426-1.073 4.713-4.203 10.405-9.031 16.54zm40.328-4.625c-.447-1.067-.894-2.222-1.341-3.2-.716-1.601-1.431-3.114-2.057-4.537l-.09-.088A924.2 924.2 0 0058.578 15.12l-.268-.535a177.95 177.95 0 01-2.146-4.18c-.895-1.602-1.79-3.29-3.22-4.892C50.082 1.956 45.97 0 41.587 0c-4.47 0-8.494 1.956-11.446 5.337-1.34 1.6-2.324 3.29-3.218 4.892-.715 1.422-1.431 2.846-2.146 4.18l-.268.532c-6.885 13.34-13.592 26.86-19.762 40.2l-.09.178c-.626 1.422-1.341 2.933-2.057 4.535a58.784 58.784 0 00-1.34 3.203C.096 66.347-.26 69.46.185 72.66A18.92 18.92 0 0011.81 87.423c2.325.98 4.739 1.424 7.243 1.424.716 0 1.61-.09 2.325-.179 2.95-.356 5.99-1.333 8.941-3.023 3.667-2.046 7.155-4.98 11.089-9.25 3.934 4.27 7.511 7.205 11.088 9.25 2.951 1.69 5.991 2.667 8.942 3.023.715.09 1.61.179 2.325.179 2.504 0 5.007-.445 7.243-1.424 6.26-2.489 10.64-8.181 11.624-14.763.716-3.114.358-6.225-.805-9.517z" fill="#E0565B"/>
  </g>
  <defs>
    <clipPath id="W9Btpynq4Eta">
      <path fill="#fff" d="M0 0h83v89H0z"/>
    </clipPath>
  </defs>
</svg>
