<svg xmlns="http://www.w3.org/2000/svg" fill="none" viewBox="0 0 99 116">
  <path d="M30.314.33a3.422 3.422 0 00-1.62.42c-1.631.901-2.23 2.99-1.325 4.614l3.682 6.627C22.178 17.461 16.3 26.806 16.3 37.471v1.983a9.268 9.268 0 00-7.008-3.188C4.163 36.266 0 40.416 0 45.525v28.522c0 5.109 4.164 9.258 9.291 9.258a9.267 9.267 0 007.008-3.188v3.996c0 5.386 4.422 9.793 9.828 9.793h2.493v12.688c0 5.111 4.164 9.26 9.292 9.26 5.127 0 9.29-4.15 9.29-9.26V93.906h4.315v12.688c0 5.111 4.163 9.26 9.291 9.26s9.291-4.15 9.291-9.26V93.906h2.494c5.405 0 9.828-4.407 9.828-9.793v-3.995a9.268 9.268 0 007.007 3.187c5.128 0 9.291-4.149 9.291-9.258V45.525c0-5.11-4.163-9.259-9.29-9.259a9.268 9.268 0 00-7.008 3.188v-1.982c0-10.664-5.893-20-14.763-25.47l3.693-6.638c.903-1.624.306-3.713-1.326-4.614a3.422 3.422 0 00-1.62-.42 3.409 3.409 0 00-3.01 1.741l-3.861 6.953a35.235 35.235 0 00-12.174-2.15c-4.286 0-8.402.753-12.175 2.139l-3.861-6.942a3.41 3.41 0 00-3.01-1.74z" fill="#fff"/>
  <path d="M9.292 38.678c-3.827 0-6.871 3.034-6.871 6.847v28.521c0 3.813 3.044 6.848 6.87 6.848 3.827 0 6.872-3.035 6.872-6.848V45.525c0-3.813-3.045-6.847-6.871-6.847zm80.137 0c-3.826 0-6.871 3.034-6.871 6.847v28.521c0 3.813 3.044 6.848 6.871 6.848 3.826 0 6.87-3.035 6.87-6.848V45.525c0-3.813-3.044-6.847-6.87-6.847zM37.912 71.226c-3.826 0-6.871 3.034-6.871 6.847v28.521c0 3.813 3.045 6.847 6.871 6.847 3.826 0 6.87-3.034 6.87-6.847V78.073c0-3.813-3.044-6.847-6.87-6.847zm22.896 0c-3.826 0-6.87 3.034-6.87 6.847v28.521c0 3.813 3.044 6.847 6.87 6.847 3.827 0 6.871-3.034 6.871-6.847V78.073c0-3.813-3.044-6.847-6.87-6.847z" fill="#A4C639"/>
  <path d="M30.335 2.743a.958.958 0 00-.463.125.943.943 0 00-.379 1.321l4.84 8.714c-9.311 4.83-15.602 14.005-15.614 24.537H80c-.013-10.531-6.302-19.708-15.615-24.537l4.84-8.713a.943.943 0 00-.378-1.322.957.957 0 00-.463-.125.96.96 0 00-.863.503l-4.904 8.808c-4.01-1.773-8.51-2.768-13.258-2.768-4.747 0-9.246.995-13.258 2.768l-4.903-8.808a.96.96 0 00-.862-.503zM18.72 39.852v44.261a7.344 7.344 0 002.165 5.225 7.394 7.394 0 005.242 2.157h46.467a7.415 7.415 0 005.242-2.158A7.364 7.364 0 0080 84.113v-44.26H18.72v-.001z" fill="#A4C639"/>
  <path d="M35.218 21.166c-1.4 0-2.557 1.154-2.557 2.548 0 1.394 1.158 2.548 2.557 2.548s2.557-1.154 2.557-2.548c0-1.394-1.158-2.548-2.557-2.548zm28.283 0c-1.399 0-2.556 1.154-2.556 2.548 0 1.394 1.157 2.548 2.556 2.548 1.4 0 2.557-1.154 2.557-2.548 0-1.394-1.158-2.548-2.557-2.548z" fill="#fff"/>
</svg>
