<svg xmlns="http://www.w3.org/2000/svg" fill="none" viewBox="0 0 106 88">
  <path d="M53.124 0C24.703 0 2.436 36.08.33 66.554c8.919 15.444 30.426 21.25 52.795 21.25 22.367 0 43.876-5.806 52.791-21.25C103.808 36.08 81.545 0 53.125 0" fill="#B6DEFF"/>
  <path d="M98.489 59.295S92.212 45.753 85.83 37.853c-6.384-7.903-14.18-16.509-18.79-16.509-4.608 0-17.488 22.755-23.397 22.755-5.91 0-8.982-10.315-16.249-10.315-7.269 0-18.818 24.875-18.818 24.875l-.782 4.217s4.012 17.749 45.987 17.749c41.977 0 45.332-17.458 45.332-17.458l-.623-3.873" fill="#6C6"/>
  <path d="M44.3 53.81c-6.52 0-9.861-6.418-11.673-10.38-1.63-3.568-1.912-9.203-6.535-9.36.455-.18.892-.286 1.302-.286 7.266 0 10.338 10.315 16.248 10.315 5.91 0 18.79-22.755 23.398-22.755.868 0 1.846.305 2.907.849-.785-.103-1.792-.032-2.567.745C65.89 24.424 52.37 53.81 44.3 53.81" fill="#17AD49"/>
</svg>
