<svg xmlns="http://www.w3.org/2000/svg" fill="none" viewBox="0 0 87 87">
  <path d="M19.053 0h48.894C78.47 0 87 8.53 87 19.053v48.894C87 78.47 78.47 87 67.947 87H19.053C8.53 87 0 78.47 0 67.947V19.053C0 8.53 8.53 0 19.053 0z" fill="url(#oNmh4dXQJT5a)"/>
  <path d="M27.881 63.146l.009.003-2.975 5.152a3.932 3.932 0 11-6.81-3.932l2.19-3.795.211-.365c.376-.54 1.302-1.471 3.156-1.296 0 0 4.363.474 4.678 2.741 0 0 .043.746-.459 1.492zm42.19-13.158h-9.276c-.632-.043-.907-.269-1.016-.4l-.007-.012-9.93-17.198-.012.009-.596-.854c-.976-1.492-2.525 2.325-2.525 2.325-1.85 4.253.262 9.089.999 10.55l13.791 23.888a3.932 3.932 0 106.81-3.932l-3.448-5.973c-.067-.145-.183-.538.524-.54h4.686a3.932 3.932 0 100-7.864zm-18.017 5.345s.495 2.518-1.42 2.518h-34.29a3.932 3.932 0 110-7.864h8.815c1.424-.082 1.76-.904 1.76-.904l.009.004 11.507-19.93-.004-.002a.879.879 0 00.005-.806l-3.8-6.582a3.931 3.931 0 116.81-3.932l1.763 3.052 1.759-3.047a3.932 3.932 0 016.81 3.932L35.767 49.507c-.07.169-.092.434.43.48h9.57l.003.094s5.532.086 6.285 5.252z" fill="#fff"/>
  <defs>
    <linearGradient id="oNmh4dXQJT5a" x1="43.5" y1="0" x2="43.5" y2="87" gradientUnits="userSpaceOnUse">
      <stop stop-color="#17C9FB"/>
      <stop offset="1" stop-color="#1A74E8"/>
    </linearGradient>
  </defs>
</svg>
