<svg xmlns="http://www.w3.org/2000/svg" fill="none" viewBox="0 0 379 17">
  <path d="M2.366 0H376.51c.823 0 1.121.07 1.422.203.3.132.536.327.697.574.161.248.247.494.247 1.171v14.767H0V1.948c0-.677.086-.923.246-1.17C.407.53.643.334.944.202c.3-.132.6-.203 1.422-.203z" fill="#E2E3E5"/>
  <path d="M10.242 10.333c1.274 0 2.307-.85 2.307-1.9 0-1.048-1.033-1.899-2.307-1.899s-2.307.85-2.307 1.9c0 1.049 1.033 1.9 2.307 1.9zm8.305 0c1.274 0 2.307-.85 2.307-1.9 0-1.048-1.033-1.899-2.307-1.899s-2.307.85-2.307 1.9c0 1.049 1.033 1.9 2.307 1.9zm8.305 0c1.274 0 2.307-.85 2.307-1.9 0-1.048-1.033-1.899-2.307-1.899s-2.307.85-2.307 1.9c0 1.049 1.033 1.9 2.307 1.9z" fill="#C4C6CA"/>
  <path d="M39.569 4.559h328.897c.412 0 .561.035.711.101a.776.776 0 01.349.287c.08.124.123.247.123.586v5.65c0 .338-.043.461-.123.585a.776.776 0 01-.349.287c-.15.066-.299.102-.711.102H39.569c-.412 0-.56-.036-.711-.102a.781.781 0 01-.349-.287c-.08-.124-.123-.247-.123-.585v-5.65c0-.339.043-.462.123-.586a.781.781 0 01.349-.287c.15-.066.3-.101.71-.101z" fill="#fff"/>
</svg>
